<?xml version="1.0" encoding="utf-8"?>
<svg viewBox="0 0 500 400" width="500" height="400" xmlns="http://www.w3.org/2000/svg">
  <g transform="matrix(1.734400987625122, 0, 0, 1.734400987625122, -3.552713678800501e-15, 0)" style="">
    <g>
      <polygon points="143.978,208.833 80.785,208.833 70.488,230.28 143.978,230.28 216.343,230.28 202.53,208.833 &#9;&#9;&#10;&#9;&#9;&#9;" style="fill: rgb(255, 255, 255);"/>
      <polygon points="143.978,0 0,0 0,170.256 143.978,170.256 287.957,170.256 287.957,0 &#9;&#9;" style="fill: rgb(255, 255, 255);"/>
      <polygon points="163.327,205.05 163.327,173.72 143.978,173.72 123.143,173.72 123.143,205.05 143.978,205.05 &#9;&#9;&#10;&#9;&#9;&#9;" style="fill: rgb(255, 255, 255);"/>
    </g>
    <polygon points="277.592,160.632 143.978,160.632 10.365,160.632 10.365,9.623 143.978,9.623 277.592,9.623 &#9;" style="fill: rgb(255, 255, 255);"/>
  </g>
  <g transform="matrix(0.6064079999923706, 0, 0, 0.6064079999923706, 146.82785034179688, 42.22100067138672)" style="">
    <g>
      <g>
        <path d="M293.629,127.806l-5.795-13.739c19.846-44.856,18.53-46.189,14.676-50.08l-25.353-24.77l-2.516-2.12h-2.937&#10;&#9;&#9;&#9;&#9;c-1.549,0-6.173,0-44.712,17.48l-14.184-5.719c-18.332-45.444-20.212-45.444-25.58-45.444h-35.765&#10;&#9;&#9;&#9;&#9;c-5.362,0-7.446-0.006-24.448,45.606l-14.123,5.734C86.848,43.757,71.574,38.19,67.452,38.19l-3.381,0.105L36.801,65.032&#10;&#9;&#9;&#9;&#9;c-4.138,3.891-5.582,5.263,15.402,49.425l-5.774,13.691C0,146.097,0,147.838,0,153.33v35.068c0,5.501,0,7.44,46.585,24.127&#10;&#9;&#9;&#9;&#9;l5.773,13.667c-19.843,44.832-18.51,46.178-14.655,50.032l25.353,24.8l2.522,2.168h2.951c1.525,0,6.092,0,44.685-17.516&#10;&#9;&#9;&#9;&#9;l14.159,5.758c18.335,45.438,20.218,45.427,25.598,45.427h35.771c5.47,0,7.41,0,24.463-45.589l14.195-5.74&#10;&#9;&#9;&#9;&#9;c26.014,11,41.253,16.585,45.349,16.585l3.404-0.096l27.479-26.901c3.909-3.945,5.278-5.309-15.589-49.288l5.734-13.702&#10;&#9;&#9;&#9;&#9;c46.496-17.967,46.496-19.853,46.496-25.221v-35.029C340.268,146.361,340.268,144.434,293.629,127.806z M170.128,228.474&#10;&#9;&#9;&#9;&#9;c-32.798,0-59.504-26.187-59.504-58.364c0-32.153,26.707-58.315,59.504-58.315c32.78,0,59.43,26.168,59.43,58.315&#10;&#9;&#9;&#9;&#9;C229.552,202.287,202.902,228.474,170.128,228.474z" style="fill: rgb(100, 163, 211);"/>
      </g>
    </g>
  </g>
  <g transform="matrix(0.6064079999923706, 0, 0, 0.6064079999923706, 146.82785034179688, 44.28764343261719)" style=""/>
  <g transform="matrix(0.6064079999923706, 0, 0, 0.6064079999923706, 146.82785034179688, 44.28764343261719)" style=""/>
  <g transform="matrix(0.6064079999923706, 0, 0, 0.6064079999923706, 146.82785034179688, 44.28764343261719)" style=""/>
  <g transform="matrix(0.6064079999923706, 0, 0, 0.6064079999923706, 146.82785034179688, 44.28764343261719)" style=""/>
  <g transform="matrix(0.6064079999923706, 0, 0, 0.6064079999923706, 146.82785034179688, 44.28764343261719)" style=""/>
  <g transform="matrix(0.6064079999923706, 0, 0, 0.6064079999923706, 146.82785034179688, 44.28764343261719)" style=""/>
  <g transform="matrix(0.6064079999923706, 0, 0, 0.6064079999923706, 146.82785034179688, 44.28764343261719)" style=""/>
  <g transform="matrix(0.6064079999923706, 0, 0, 0.6064079999923706, 146.82785034179688, 44.28764343261719)" style=""/>
  <g transform="matrix(0.6064079999923706, 0, 0, 0.6064079999923706, 146.82785034179688, 44.28764343261719)" style=""/>
  <g transform="matrix(0.6064079999923706, 0, 0, 0.6064079999923706, 146.82785034179688, 44.28764343261719)" style=""/>
  <g transform="matrix(0.6064079999923706, 0, 0, 0.6064079999923706, 146.82785034179688, 44.28764343261719)" style=""/>
  <g transform="matrix(0.6064079999923706, 0, 0, 0.6064079999923706, 146.82785034179688, 44.28764343261719)" style=""/>
  <g transform="matrix(0.6064079999923706, 0, 0, 0.6064079999923706, 146.82785034179688, 44.28764343261719)" style=""/>
  <g transform="matrix(0.6064079999923706, 0, 0, 0.6064079999923706, 146.82785034179688, 44.28764343261719)" style=""/>
  <g transform="matrix(0.6064079999923706, 0, 0, 0.6064079999923706, 146.82785034179688, 44.28764343261719)" style=""/>
</svg>